<svg width="1200" height="520" viewBox="0 0 1200 520" fill="none" xmlns="http://www.w3.org/2000/svg">
  <defs>
    <linearGradient id="continentFill" x1="157.5" y1="109" x2="1017.5" y2="428" gradientUnits="userSpaceOnUse">
      <stop stop-color="#1BC8DC" stop-opacity="0.18"/>
      <stop offset="1" stop-color="#1BC8DC" stop-opacity="0.06"/>
    </linearGradient>
  </defs>

  <g fill="url(#continentFill)" stroke="#0EAEC2" stroke-opacity="0.18" stroke-width="1.6">
    <path d="M108 172L126 151L154 141L191 138L223 148L247 167L274 168L289 184L317 191L311 208L287 220L279 239L260 247L248 265L223 278L196 282L175 271L161 255L141 246L129 226L118 212L109 212L104 199L104 182L115 176L122 166L120 156L108 172Z"/>
    <path d="M283 127L293 114L311 106L332 109L342 120L337 134L321 140L303 138L290 134L283 127Z"/>
    <path d="M280 322L301 314L324 320L336 335L339 357L334 378L321 397L305 420L288 438L271 433L258 412L248 392L239 374L232 357L231 339L240 324L261 318L280 322Z"/>
    <path d="M508 141L525 130L551 127L567 136L579 144L595 145L606 154L602 168L589 177L577 178L566 171L553 175L539 170L525 163L514 154L508 141Z"/>
    <path d="M518 191L536 184L558 190L577 206L587 226L582 245L571 259L557 281L547 307L532 322L515 316L501 299L496 277L489 258L485 236L489 214L500 198L518 191Z"/>
    <path d="M563 132L584 118L611 108L643 106L668 112L690 126L719 130L740 146L742 162L731 176L712 183L695 183L678 172L659 172L645 180L624 184L608 176L590 169L575 153L563 132Z"/>
    <path d="M680 145L700 132L727 127L752 131L780 142L801 136L828 144L851 159L861 178L856 195L836 204L813 203L792 209L773 218L751 221L729 214L713 200L699 188L686 173L680 145Z"/>
    <path d="M747 228L765 219L787 223L812 233L834 246L857 251L883 257L897 273L893 287L874 291L858 304L835 309L812 306L796 297L780 285L767 271L755 253L747 228Z"/>
    <path d="M868 343L887 334L911 335L934 343L953 356L972 366L986 382L984 395L968 405L947 407L925 404L904 402L887 390L874 377L867 361L868 343Z"/>
    <path d="M936 155L965 141L1005 135L1043 136L1082 146L1114 159L1139 181L1136 203L1118 220L1101 234L1074 238L1053 245L1029 249L1001 244L977 233L952 220L939 199L934 181L936 155Z"/>
    <path d="M1008 262L1032 259L1060 264L1085 273L1101 283L1120 285L1137 298L1134 312L1117 319L1106 330L1086 333L1060 330L1036 327L1015 319L1004 307L1006 290L1015 278L1008 262Z"/>
  </g>
</svg>
